<svg xmlns="http://www.w3.org/2000/svg" version="1.1" width="1024" height="1024" class="injected-svg" data-src="https://storage.googleapis.com/illustroke-c1d67.appspot.com/IpqcWBfhhpdtdS6pDf2SP9EpP7A3/76x1zktp9pb393v7k34g-0.svg" xmlns:xlink="http://www.w3.org/1999/xlink" viewBox="0 0 512 512">
<path d="M0 0 C168.96 0 337.92 0 512 0 C512 168.96 512 337.92 512 512 C343.04 512 174.08 512 0 512 C0 343.04 0 174.08 0 0 Z " fill="#FCFCFC" transform="translate(0,0)"/>
<path d="M0 0 C1.28100586 0.00483398 1.28100586 0.00483398 2.58789062 0.00976562 C3.48572266 0.01814453 4.38355469 0.02652344 5.30859375 0.03515625 C6.21029297 0.03966797 7.11199219 0.04417969 8.04101562 0.04882812 C10.27610689 0.060654 12.51106812 0.07713405 14.74609375 0.09765625 C13.75609375 0.42765625 12.76609375 0.75765625 11.74609375 1.09765625 C11.37894124 4.1474101 11.37894124 4.1474101 11.55859375 7.66015625 C11.58566406 8.85769531 11.61273438 10.05523437 11.640625 11.2890625 C11.29730706 14.60886012 11.29730706 14.60886012 14.87109375 14.16015625 C44.78115678 18.0314942 59.12644201 49.84587497 59.2578125 76.3984375 C59.27485103 77.80732626 59.29306446 79.21620121 59.31234741 80.62506104 C59.36046918 84.42835316 59.39013765 88.23158243 59.41585159 92.03508377 C59.43967075 95.22366083 59.47429398 98.41208527 59.50876904 101.6005621 C59.70756558 120.15634475 59.77242612 138.71279162 59.80078125 157.26953125 C59.80205143 158.09522865 59.80332161 158.92092606 59.80463028 159.77164459 C59.82838997 177.54706414 59.7783541 195.32220565 59.74609375 213.09765625 C22.12609375 213.09765625 -15.49390625 213.09765625 -54.25390625 213.09765625 C-54.37481535 177.84145754 -54.37481535 177.84145754 -54.40039062 162.99804688 C-54.41814919 152.77379815 -54.43895633 142.54962394 -54.48022461 132.32543945 C-54.51027375 124.8771911 -54.5295158 117.42900355 -54.53617173 109.98069626 C-54.54005792 106.04259555 -54.54908961 102.10466866 -54.57109642 98.16662407 C-54.5917078 94.44757834 -54.59769125 90.72877532 -54.59322929 87.00967789 C-54.59442711 85.01939519 -54.61043853 83.02913792 -54.62716675 81.03892517 C-54.52999471 52.20196745 -40.29101743 20.30507849 -9.25390625 14.09765625 C-7.93390625 14.09765625 -6.61390625 14.09765625 -5.25390625 14.09765625 C-5.26550781 13.17082031 -5.27710938 12.24398437 -5.2890625 11.2890625 C-5.29808594 10.09152344 -5.30710938 8.89398438 -5.31640625 7.66015625 C-5.32800781 6.46519531 -5.33960938 5.27023438 -5.3515625 4.0390625 C-5.20181127 -0.47144441 -4.08430912 -0.0270484 0 0 Z " fill="#292726" transform="translate(248.25390625,176.90234375)"/>
<path d="M0 0 C3.72677996 0 1.6625932 7.28852515 2 11 C2.144375 9.370625 2.28875 7.74125 2.4375 6.0625 C2.98568429 -0.12415133 2.98568429 -0.12415133 8.23071289 -0.12939453 C9.13418961 -0.13254669 10.03766632 -0.13569885 10.96852112 -0.13894653 C12.45556801 -0.13591019 12.45556801 -0.13591019 13.97265625 -0.1328125 C15.00192734 -0.13376923 16.03119843 -0.13472595 17.09165955 -0.13571167 C19.29181987 -0.13639505 21.49198217 -0.13452988 23.69213867 -0.13037109 C26.96863732 -0.12514958 30.24499078 -0.13024396 33.52148438 -0.13671875 C48.03666889 -0.14083946 62.50340835 0.27325045 77 1 C77.35357778 47.05410747 76.3062304 92.95537825 75 139 C1 139 1 139 0 119 C-0.07651116 114.59541902 -0.12873434 110.20865423 -0.11352539 105.80566406 C-0.11367142 104.64206863 -0.11381744 103.47847321 -0.1139679 102.27961731 C-0.11328455 98.52493259 -0.10556826 94.77030079 -0.09765625 91.015625 C-0.09578643 88.37620063 -0.0943652 85.73677591 -0.09336853 83.09735107 C-0.09029333 76.91792211 -0.08213284 70.7385114 -0.07201904 64.55909038 C-0.06073761 57.50918649 -0.05531753 50.4592816 -0.05032361 43.4093709 C-0.0399458 28.9395713 -0.02242239 14.4697859 0 0 Z " fill="#F9F9F9" transform="translate(215,248)"/>
<path d="M0 0 C2.00905047 11.00117151 2.00905047 11.00117151 -2.06640625 13.02734375 C-3.98776482 13.27058829 -5.91652077 13.45883169 -7.84765625 13.60546875 C-25.16866004 15.77327715 -37.26826677 34.99087346 -37.24050903 51.34017944 C-37.24325836 52.59372223 -37.24600769 53.84726501 -37.24884033 55.13879395 C-37.24176347 56.51489355 -37.23449388 57.89099217 -37.22705078 59.26708984 C-37.22648622 60.72608431 -37.22680411 62.18507935 -37.22793579 63.64407349 C-37.22850855 67.59405552 -37.21676667 71.54391557 -37.20278788 75.4938693 C-37.19026774 79.62584022 -37.189109 83.75781407 -37.18673706 87.88980103 C-37.18052606 95.7094737 -37.16412039 103.5290903 -37.14403808 111.34873831 C-37.12166725 120.25317415 -37.11068267 129.1576127 -37.10064721 138.06206965 C-37.07975383 156.37474574 -37.04418139 174.68736631 -37 193 C-40.96 193 -44.92 193 -49 193 C-49.08192166 176.86017233 -49.0591833 160.72075809 -49.0079422 144.58087158 C-48.99944417 141.81937813 -48.9918668 139.05788291 -48.98431396 136.29638672 C-48.95024918 124.41575429 -48.89679927 112.53542195 -48.81448841 100.65501976 C-48.77622251 95.09139212 -48.74459211 89.52791462 -48.72927856 83.96417236 C-48.71416884 78.62318951 -48.67978325 73.28264891 -48.63175392 67.94186401 C-48.61704169 65.95134287 -48.60896179 63.96075965 -48.60809898 61.97018433 C-48.59604141 47.97003005 -23.8804593 -23.8804593 0 0 Z " fill="#F9F9F9" transform="translate(246,194)"/>
<path d="M0 0 C14.11043559 0.74095895 27.27279053 13.76359325 32.421875 26.1796875 C32.81028564 27.06285645 32.81028564 27.06285645 33.20654297 27.96386719 C35.96994726 35.00183615 35.79736691 41.83007584 35.671875 49.3046875 C35.66671875 50.54089844 35.6615625 51.77710938 35.65625 53.05078125 C35.60643391 58.84812831 35.47193375 64.4721101 34.421875 70.1796875 C33.421875 70.1796875 33.421875 70.1796875 32.421875 63.1796875 C32.421875 56.2496875 32.421875 49.3196875 32.421875 42.1796875 C-53.57587296 31.01080005 -53.57587296 31.01080005 -42.578125 116.1796875 C-42.908125 116.1796875 -43.238125 116.1796875 -43.578125 116.1796875 C-43.908125 95.3896875 -44.238125 74.5996875 -44.578125 53.1796875 C-44.63871094 58.52414062 -44.69929687 63.86859375 -44.76171875 69.375 C-44.8022251 72.76563282 -44.84300447 76.15625797 -44.88476562 79.546875 C-44.95098962 84.92575422 -45.01621569 90.30463231 -45.07543945 95.68359375 C-45.1232629 100.02137598 -45.17561141 104.35908238 -45.23106575 108.69677353 C-45.25140808 110.34970073 -45.27013417 112.00264866 -45.28719902 113.65561295 C-45.31142377 115.97507442 -45.34145229 118.29439491 -45.37280273 120.61376953 C-45.39611916 122.59233444 -45.39611916 122.59233444 -45.41990662 124.61087036 C-45.56536146 127.89178961 -45.98823867 130.95444164 -46.578125 134.1796875 C-46.70826449 136.39138809 -46.79994465 138.60558367 -46.859375 140.8203125 C-46.89675781 142.05523437 -46.93414062 143.29015625 -46.97265625 144.5625 C-47.04339457 147.15623842 -47.11370198 149.74998863 -47.18359375 152.34375 C-47.22097656 153.57351563 -47.25835937 154.80328125 -47.296875 156.0703125 C-47.32716797 157.19469727 -47.35746094 158.31908203 -47.38867188 159.47753906 C-47.71834907 164.1796875 -47.71834907 164.1796875 -50.578125 164.1796875 C-50.578125 123.9196875 -50.578125 83.6596875 -50.578125 42.1796875 C-51.238125 42.1796875 -51.898125 42.1796875 -52.578125 42.1796875 C-53.95056116 25.98494082 -43.22107517 7.86803302 -27.578125 2.1796875 C-25.203125 2.4921875 -25.203125 2.4921875 -23.578125 3.1796875 C-26.73138361 8.98168334 -26.73138361 8.98168334 -30.90234375 9.95703125 C-35.68728043 11.54862018 -37.15094933 13.77042664 -39.828125 17.8671875 C-40.45847656 18.76727539 -40.45847656 18.76727539 -41.1015625 19.68554688 C-43.91754856 23.80768999 -45.5338575 27.40973 -47.578125 32.1796875 C-21.838125 32.1796875 3.901875 32.1796875 30.421875 32.1796875 C30.421875 31.5196875 30.421875 30.8596875 30.421875 30.1796875 C29.761875 30.1796875 29.101875 30.1796875 28.421875 30.1796875 C27.2734375 28.38671875 27.2734375 28.38671875 26.046875 25.9921875 C24.13418186 22.38247581 22.0129622 19.34657186 19.421875 16.1796875 C19.421875 15.5196875 19.421875 14.8596875 19.421875 14.1796875 C18.431875 14.5096875 17.441875 14.8396875 16.421875 15.1796875 C16.26211182 14.36709473 16.10234863 13.55450195 15.93774414 12.71728516 C13.58571293 8.77993415 10.34895894 9.5080252 6.16796875 9.578125 C4.94389061 9.56611557 4.94389061 9.56611557 3.69508362 9.55386353 C1.08267906 9.53071933 -1.52817707 9.54029253 -4.140625 9.5546875 C-6.75635307 9.55852323 -9.37139558 9.55520542 -11.98704529 9.53408813 C-13.61628562 9.52190957 -15.24571789 9.52481308 -16.87489319 9.54379272 C-22.46603586 9.51595492 -22.46603586 9.51595492 -23.578125 6.1796875 C-20.47315766 5.2676287 -17.71114964 5.06284142 -14.48046875 5.08203125 C-13.03124023 5.08686523 -13.03124023 5.08686523 -11.55273438 5.09179688 C-10.55048828 5.10017578 -9.54824219 5.10855469 -8.515625 5.1171875 C-7.50951172 5.12169922 -6.50339844 5.12621094 -5.46679688 5.13085938 C-3.60277121 5.13957559 -1.73875321 5.1503445 0.12524414 5.16381836 C1.89075354 5.17601758 3.65632346 5.1796875 5.421875 5.1796875 C4.844375 5.07011719 4.266875 4.96054688 3.671875 4.84765625 C2.929375 4.68910156 2.186875 4.53054687 1.421875 4.3671875 C0.679375 4.21636719 -0.063125 4.06554687 -0.828125 3.91015625 C-4.0784947 2.55341711 -3.49287939 0.24344311 0 0 Z " fill="#0C0B0A" transform="translate(260.578125,205.8203125)"/>
<path d="M0 0 C32.6664746 3.68815036 45.16331278 31.22170016 45.4140625 60.66015625 C45.43297283 62.10255346 45.45260113 63.5449414 45.47288513 64.98731995 C45.52479814 68.87175062 45.56439211 72.7562151 45.60109329 76.64081573 C45.62507055 79.06964665 45.65269745 81.49840817 45.68161011 83.92718506 C46.11795718 120.61709872 46.10682145 157.30816537 46 194 C42.7 194 39.4 194 36 194 C36.00691345 192.88930759 36.00691345 192.88930759 36.01396656 191.75617695 C36.12465676 173.69266762 36.20725874 155.62922649 36.25906086 137.56544971 C36.28478146 128.82972299 36.31981354 120.09422344 36.37719727 111.35864258 C36.42722142 103.73974737 36.45933562 96.12101678 36.47044247 88.50196189 C36.47692929 84.47213228 36.4920446 80.44277338 36.52865028 76.41309547 C36.56291156 72.61022747 36.57299329 68.8080183 36.56553841 65.0050106 C36.56754248 62.96419179 36.59427831 60.92344263 36.62210083 58.8828125 C36.50197529 37.10048823 23.56475432 18.95748655 2.19140625 13.25 C-1.14983813 11.34412085 -0.50753947 9.5417421 -0.3125 5.875 C-0.26738281 4.77929688 -0.22226562 3.68359375 -0.17578125 2.5546875 C-0.11777344 1.71164063 -0.05976563 0.86859375 0 0 Z " fill="#F3F3F3" transform="translate(259,193)"/>
<path d="M0 0 C0 9.9 0 19.8 0 30 C1.98 30 3.96 30 6 30 C9.375 31.5 9.375 31.5 12 33 C8.98968256 33.93423645 8.13349732 34.04449911 5 33 C3.0079697 32.91708047 1.01326287 32.89261823 -0.98046875 32.90234375 C-2.72553711 32.90717773 -2.72553711 32.90717773 -4.50585938 32.91210938 C-6.32827148 32.92467773 -6.32827148 32.92467773 -8.1875 32.9375 C-10.02731445 32.94426758 -10.02731445 32.94426758 -11.90429688 32.95117188 C-14.93624668 32.96296935 -17.96809906 32.97943079 -21 33 C-19.32659682 36.34680635 -15.73508633 35.29895221 -12.3515625 35.30859375 C-10.77343386 35.33375718 -9.19530895 35.35915515 -7.6171875 35.38476562 C-5.11980172 35.41351357 -2.62248082 35.43751894 -0.125 35.45629883 C2.27899403 35.47793287 4.68221127 35.51737561 7.0859375 35.55859375 C8.20637955 35.55876747 8.20637955 35.55876747 9.34945679 35.5589447 C15.65031195 35.67947971 15.65031195 35.67947971 18 39 C19.76429774 41.23570226 19.76429774 41.23570226 22 41 C31 51.10306407 31 51.10306407 31 57 C31.66 57 32.32 57 33 57 C33 57.66 33 58.32 33 59 C7.26 59 -18.48 59 -45 59 C-44.0658394 54.32919701 -43.14861608 52.24028539 -40.625 48.375 C-39.71621094 46.96347656 -39.71621094 46.96347656 -38.7890625 45.5234375 C-37.29834075 43.42080377 -35.83894004 41.7772996 -34 40 C-33.34 39.01 -32.68 38.02 -32 37 C-30.845 36.690625 -29.69 36.38125 -28.5 36.0625 C-24.88662636 35.46124985 -24.88662636 35.46124985 -24.1953125 33.01171875 C-22.30643964 29.83273339 -19.90579393 30.16538752 -16.375 29.75 C-15.18648437 29.60046875 -13.99796875 29.4509375 -12.7734375 29.296875 C-11.85820312 29.19890625 -10.94296875 29.1009375 -10 29 C-9.91942864 26.52019247 -9.85972562 24.04296973 -9.8125 21.5625 C-9.78736328 20.85544922 -9.76222656 20.14839844 -9.73632812 19.41992188 C-9.28002251 14.90862427 -9.28002251 14.90862427 -13 13 C-14.29482072 0 -14.29482072 0 0 0 Z " fill="#8C8A8A" transform="translate(258,179)"/>
<path d="M0 0 C0.33 0 0.66 0 1 0 C1.17814273 10.5414959 1.34363059 21.08316002 1.5 31.625 C1.51187725 32.42526989 1.5237545 33.22553978 1.53599167 34.05006027 C1.94043279 61.55486156 2.08975554 89.05485129 2.0625 116.5625 C2.06164398 117.43272041 2.06078796 118.30294083 2.05990601 119.19953156 C2.04868846 129.79971271 2.02802789 140.39985065 2 151 C-13 150 -13 150 -13 144 C-13.33 144 -13.66 144 -14 144 C-14.00531235 144.81329269 -14.01062469 145.62658539 -14.01609802 146.46452332 C-15.6835053 150.76136626 -19.69696226 149.65070331 -23.74243164 149.56762695 C-24.6594133 149.56835709 -25.57639496 149.56908722 -26.52116394 149.56983948 C-29.56808566 149.56634133 -32.61349993 149.5273754 -35.66015625 149.48828125 C-37.76622177 149.47896105 -39.87229809 149.4718412 -41.9783783 149.46684265 C-47.53371883 149.44771054 -53.08841036 149.39855612 -58.64349365 149.34332275 C-64.30716164 149.29226411 -69.97093405 149.26935727 -75.63476562 149.24414062 C-86.75679628 149.19044349 -97.87834427 149.10505567 -109 149 C-109 148.67 -109 148.34 -109 148 C-105.04 148 -101.08 148 -97 148 C-97 102.13 -97 56.26 -97 9 C-96.67 9 -96.34 9 -96 9 C-96 49.26 -96 89.52 -96 131 C-93.56621966 131.33319749 -93.56621966 131.33319749 -93.92407227 128.34130859 C-93.82854616 125.06482809 -93.72933757 121.78850102 -93.62768555 118.51220703 C-93.58455749 117.09818835 -93.54286832 115.68412498 -93.50268555 114.27001953 C-93.4444425 112.2293556 -93.38090859 110.18891205 -93.31640625 108.1484375 C-93.26141968 106.31031494 -93.26141968 106.31031494 -93.20532227 104.43505859 C-92.64136461 95 -92.64136461 95 -91 95 C-90.85331784 99.33336556 -90.71121169 103.66685398 -90.57275391 108.00048828 C-90.52540816 109.46439334 -90.47696347 110.92826341 -90.42724609 112.39208984 C-90.02488532 124.27404976 -90 136.10043025 -90 148 C-65.58 148 -41.16 148 -16 148 C-16 135.79 -16 123.58 -16 111 C-15.8831986 102.42923111 -15.74858748 93.86202122 -15.5625 85.29296875 C-15.51733135 83.08141232 -15.47249936 80.86984899 -15.42797852 78.65827942 C-15.31291563 72.98533012 -15.19344955 67.31248293 -15.07287598 61.63964844 C-14.94942439 55.79172427 -14.83039942 49.94370991 -14.7109375 44.09570312 C-14.47814856 32.73037834 -14.24026896 21.36516912 -14 10 C-21.92 10 -29.84 10 -38 10 C-38 9.67 -38 9.34 -38 9 C-13 9 -13 9 -12 30 C-11.34 30 -10.68 30 -10 30 C-9.89172415 53.27780475 -10.20006984 76.55200079 -10.46356201 99.82788086 C-10.52489692 105.27261253 -10.58463917 110.71736168 -10.64453125 116.16210938 C-10.7614969 126.77475687 -10.8801765 137.38738441 -11 148 C-7.7 148 -4.4 148 -1 148 C-1 141.73 -1 135.46 -1 129 C-0.67 129 -0.34 129 0 129 C0 86.43 0 43.86 0 0 Z " fill="#323130" transform="translate(306,239)"/>
<path d="M0 0 C14.11043559 0.74095895 27.27279053 13.76359325 32.421875 26.1796875 C32.81028564 27.06285645 32.81028564 27.06285645 33.20654297 27.96386719 C35.96994726 35.00183615 35.79736691 41.83007584 35.671875 49.3046875 C35.66671875 50.54089844 35.6615625 51.77710938 35.65625 53.05078125 C35.60643391 58.84812831 35.47193375 64.4721101 34.421875 70.1796875 C32.18257938 70.1796875 32.4028478 62.59254634 32.33935547 60.63330078 C32.32384926 57.83568143 32.33451641 55.03973455 32.359375 52.2421875 C32.36388672 51.27216797 32.36839844 50.30214844 32.37304688 49.30273438 C32.3847435 46.9283199 32.40113414 44.55403729 32.421875 42.1796875 C31.2937439 42.2111084 31.2937439 42.2111084 30.14282227 42.24316406 C26.75680755 42.32597349 23.371005 42.37823571 19.984375 42.4296875 C18.20836914 42.47996094 18.20836914 42.47996094 16.39648438 42.53125 C14.70942383 42.55058594 14.70942383 42.55058594 12.98828125 42.5703125 C11.94615479 42.59125977 10.90402832 42.61220703 9.83032227 42.63378906 C6.59339198 42.02348087 6.89994091 41.22824542 6.421875 38.1796875 C3.87979529 37.84625199 3.87979529 37.84625199 1.421875 38.1796875 C1.751875 39.1696875 2.081875 40.1596875 2.421875 41.1796875 C-5.828125 41.1796875 -14.078125 41.1796875 -22.578125 41.1796875 C-21.578125 39.1796875 -21.578125 39.1796875 -17.578125 39.1796875 C-17.578125 38.1896875 -17.578125 37.1996875 -17.578125 36.1796875 C-16.588125 36.1796875 -15.598125 36.1796875 -14.578125 36.1796875 C-14.578125 35.5196875 -14.578125 34.8596875 -14.578125 34.1796875 C-16.888125 34.1796875 -19.198125 34.1796875 -21.578125 34.1796875 C-21.578125 32.05234013 -7.03871945 32.19043819 -4.24298096 32.12518311 C1.45781481 32.05783528 7.1584107 32.0876546 12.859375 32.1171875 C14.57356638 32.12221921 16.28775921 32.12677913 18.00195312 32.13085938 C22.14196393 32.14171723 26.28190271 32.15888684 30.421875 32.1796875 C30.421875 31.5196875 30.421875 30.8596875 30.421875 30.1796875 C29.761875 30.1796875 29.101875 30.1796875 28.421875 30.1796875 C27.2734375 28.38671875 27.2734375 28.38671875 26.046875 25.9921875 C24.13418186 22.38247581 22.0129622 19.34657186 19.421875 16.1796875 C19.421875 15.5196875 19.421875 14.8596875 19.421875 14.1796875 C18.431875 14.5096875 17.441875 14.8396875 16.421875 15.1796875 C16.26211182 14.36709473 16.10234863 13.55450195 15.93774414 12.71728516 C13.58571293 8.77993415 10.34895894 9.5080252 6.16796875 9.578125 C4.94389061 9.56611557 4.94389061 9.56611557 3.69508362 9.55386353 C1.08267906 9.53071933 -1.52817707 9.54029253 -4.140625 9.5546875 C-6.75635307 9.55852323 -9.37139558 9.55520542 -11.98704529 9.53408813 C-13.61628562 9.52190957 -15.24571789 9.52481308 -16.87489319 9.54379272 C-22.46603586 9.51595492 -22.46603586 9.51595492 -23.578125 6.1796875 C-20.47315766 5.2676287 -17.71114964 5.06284142 -14.48046875 5.08203125 C-13.03124023 5.08686523 -13.03124023 5.08686523 -11.55273438 5.09179688 C-10.55048828 5.10017578 -9.54824219 5.10855469 -8.515625 5.1171875 C-7.50951172 5.12169922 -6.50339844 5.12621094 -5.46679688 5.13085938 C-3.60277121 5.13957559 -1.73875321 5.1503445 0.12524414 5.16381836 C1.89075354 5.17601758 3.65632346 5.1796875 5.421875 5.1796875 C4.844375 5.07011719 4.266875 4.96054688 3.671875 4.84765625 C2.929375 4.68910156 2.186875 4.53054687 1.421875 4.3671875 C0.679375 4.21636719 -0.063125 4.06554687 -0.828125 3.91015625 C-4.0784947 2.55341711 -3.49287939 0.24344311 0 0 Z " fill="#070605" transform="translate(260.578125,205.8203125)"/>
<path d="M0 0 C0 5.61 0 11.22 0 17 C16.5 17 33 17 50 17 C50 11.06 50 5.12 50 -1 C59.57 -1 69.14 -1 79 -1 C79 5.27 79 11.54 79 18 C96.49 18 113.98 18 132 18 C132 18.66 132 19.32 132 20 C114.18 20 96.36 20 78 20 C78 13.73 78 7.46 78 1 C69.09 1 60.18 1 51 1 C51 6.94 51 12.88 51 19 C33.51 19 16.02 19 -2 19 C-2 13.06 -2 7.12 -2 1 C-3.65 0.67 -5.3 0.34 -7 0 C-7.99 -0.66 -8.98 -1.32 -10 -2 C-12.06910593 -2.02749478 -12.06910593 -2.02749478 -14.1875 -1.625 C-16.0746875 -1.315625 -16.0746875 -1.315625 -18 -1 C-18 -0.34 -18 0.32 -18 1 C-19.98 1.33 -21.96 1.66 -24 2 C-24 7.94 -24 13.88 -24 20 C-39.84 20 -55.68 20 -72 20 C-72 13.73 -72 7.46 -72 1 C-80.58 1 -89.16 1 -98 1 C-97.8814423 6.17601141 -97.8814423 6.17601141 -97.72973633 11.35107422 C-97.67311354 16.22306947 -97.90729239 18.68143004 -103.33488464 19.24050903 C-104.25199722 19.23606781 -105.1691098 19.23162659 -106.11401367 19.22705078 C-107.15486618 19.22689972 -108.19571869 19.22674866 -109.26811218 19.22659302 C-110.39006485 19.21627045 -111.51201752 19.20594788 -112.66796875 19.1953125 C-114.39289299 19.19106766 -114.39289299 19.19106766 -116.15266418 19.18673706 C-119.83104796 19.17552833 -123.50918962 19.15042224 -127.1875 19.125 C-129.67903295 19.11497111 -132.1705697 19.1058451 -134.66210938 19.09765625 C-140.77482241 19.07558673 -146.88739391 19.04210224 -153 19 C-151.54146209 16.08292419 -150.36086191 16.72767855 -147.20483398 16.68115234 C-146.18385117 16.66128265 -145.16286835 16.64141296 -144.11094666 16.62094116 C-142.44534447 16.60361435 -142.44534447 16.60361435 -140.74609375 16.5859375 C-139.61551041 16.56657135 -138.48492706 16.5472052 -137.32008362 16.5272522 C-133.69263359 16.46725192 -130.06515217 16.42098938 -126.4375 16.375 C-123.98501185 16.33683905 -121.53253736 16.29778845 -119.08007812 16.2578125 C-113.05350635 16.16153382 -107.02685292 16.0765469 -101 16 C-100.93941406 14.85660156 -100.87882812 13.71320313 -100.81640625 12.53515625 C-100.73201572 11.04425695 -100.64736698 9.55337225 -100.5625 8.0625 C-100.52318359 7.30775391 -100.48386719 6.55300781 -100.44335938 5.77539062 C-100.04556229 -1.04835933 -99.74956628 -1.1260439 -93.03125 -1.1328125 C-91.82082031 -1.13410156 -90.61039063 -1.13539062 -89.36328125 -1.13671875 C-88.08839844 -1.13285156 -86.81351562 -1.12898438 -85.5 -1.125 C-83.58767578 -1.13080078 -83.58767578 -1.13080078 -81.63671875 -1.13671875 C-79.82107422 -1.13478516 -79.82107422 -1.13478516 -77.96875 -1.1328125 C-76.84919922 -1.13168457 -75.72964844 -1.13055664 -74.57617188 -1.12939453 C-65.65360322 -0.6812367 -71 7.50397624 -71 18 C-56.15 18 -41.3 18 -26 18 C-26 12.39 -26 6.78 -26 1 C-21.43562777 -2.0749455 -18.96098402 -3.51953418 -14 -5 C-11.05710273 -7.94289727 -1.88590797 -1.0776617 0 0 Z " fill="#8B8B8A" transform="translate(263,105)"/>
<path d="M0 0 C0 3 0 3 -1 6 C-2.32 6 -3.64 6 -5 6 C-5 7.32 -5 8.64 -5 10 C-5.66 10 -6.32 10 -7 10 C-7.66179847 11.98045559 -7.66179847 11.98045559 -8 14 C-4.15947693 11.68405606 -4.15947693 11.68405606 -4 7 C-2.28515625 6.05859375 -2.28515625 6.05859375 -0.0625 5.4375 C3.60402147 4.55552602 3.60402147 4.55552602 5 1 C5.99 1 6.98 1 8 1 C7.67 2.32 7.34 3.64 7 5 C10.91279544 4.92407583 10.91279544 4.92407583 12 2 C12.66 2 13.32 2 14 2 C14 1.34 14 0.68 14 0 C17.89218882 0 18.42199218 1.2556691 21 4 C21.66 4.33 22.32 4.66 23 5 C23 8.29977214 20.87032136 7.72663606 18 8 C17.34 7.34 16.68 6.68 16 6 C15.01 7.32 14.02 8.64 13 10 C15.2236068 10.2981424 15.2236068 10.2981424 16 8 C17.66842534 8.32441604 19.33480481 8.65939189 21 9 C23.72502965 8.62277985 23.72502965 8.62277985 26 8 C26 10 26 10 24 11 C24.66 11.66 25.32 12.32 26 13 C25.67 13.66 25.34 14.32 25 15 C27.475 15.495 27.475 15.495 30 16 C29.34 15.01 28.68 14.02 28 13 C28 13.66 28 14.32 28 15 C27.34 14.67 26.68 14.34 26 14 C28.54590583 10.6501239 30.10179382 10.57382701 34 12 C34.78310547 12.99580078 34.78310547 12.99580078 35.58203125 14.01171875 C39.20638949 16.99200686 42.68697404 16.67157299 47.25 16.75 C48.51070312 16.79447266 48.51070312 16.79447266 49.796875 16.83984375 C51.8640715 16.91031636 53.93204033 16.95744939 56 17 C56 17.66 56 18.32 56 19 C30.26 19 4.52 19 -22 19 C-22 14.78011682 -19.94357105 13.87348602 -17 11 C-16.649375 10.21625 -16.29875 9.4325 -15.9375 8.625 C-14.50534766 6.14260261 -13.50076998 7.29665844 -11 8 C-8.7226499 5.18490007 -8.7226499 5.18490007 -9 2 C-7.03125 1.26953125 -7.03125 1.26953125 -4.5 0.8125 C-3.24703125 0.57466797 -3.24703125 0.57466797 -1.96875 0.33203125 C-1.3190625 0.22246094 -0.669375 0.11289063 0 0 Z " fill="#ACABAB" transform="translate(235,219)"/>
<path d="M0 0 C0 48.84 0 97.68 0 148 C31.02 148 62.04 148 94 148 C94 139.75 94 131.5 94 123 C97.72677996 123 95.6625932 130.28852515 96 134 C96.33 134 96.66 134 97 134 C97.02692484 136.29160319 97.04636124 138.58329546 97.0625 140.875 C97.07410156 142.15117187 97.08570313 143.42734375 97.09765625 144.7421875 C96.88516466 151.83090685 92.64500572 150.2726399 86.79858398 150.22705078 C85.83283447 150.22734283 84.86708496 150.22763489 83.87207031 150.22793579 C80.66332168 150.22653665 77.45480207 150.21094811 74.24609375 150.1953125 C72.02791979 150.19158444 69.80974419 150.1887365 67.59156799 150.18673706 C61.74056487 150.17908427 55.88966034 150.15942173 50.03869629 150.1373291 C44.07333714 150.11690602 38.10796213 150.10774293 32.14257812 150.09765625 C20.42834199 150.07617733 8.71417918 150.04202165 -3 150 C-3.02337379 131.47601322 -3.04100119 112.95202944 -3.05181217 94.42803097 C-3.0569656 85.82677149 -3.06399016 77.22552117 -3.07543945 68.62426758 C-3.08541539 61.12628901 -3.09186036 53.62831708 -3.09408849 46.13033205 C-3.09539065 42.16125546 -3.09844522 38.19219786 -3.10573006 34.22312737 C-3.11253617 30.48446459 -3.11460763 26.74582857 -3.11310768 23.00716019 C-3.11351235 20.98673918 -3.11888358 18.96632106 -3.12442017 16.94590759 C-3.10521334 0 -3.10521334 0 0 0 Z " fill="#3B3938" transform="translate(197,240)"/>
<path d="M0 0 C0 9.9 0 19.8 0 30 C1.98 30 3.96 30 6 30 C9.375 31.5 9.375 31.5 12 33 C8.98968256 33.93423645 8.13349732 34.04449911 5 33 C3.38227867 32.90692658 1.76102015 32.86930923 0.140625 32.8671875 C-0.81070312 32.86589844 -1.76203125 32.86460937 -2.7421875 32.86328125 C-3.73476562 32.86714844 -4.72734375 32.87101562 -5.75 32.875 C-6.72710937 32.87113281 -7.70421875 32.86726563 -8.7109375 32.86328125 C-13.91566129 32.8702957 -18.87218572 33.09761928 -24 34 C-22.54900056 29.64700168 -20.79031111 30.36188393 -16.4375 29.8125 C-14.64119141 29.57466797 -14.64119141 29.57466797 -12.80859375 29.33203125 C-11.88175781 29.22246094 -10.95492187 29.11289063 -10 29 C-9.91942864 26.52019247 -9.85972562 24.04296973 -9.8125 21.5625 C-9.78736328 20.85544922 -9.76222656 20.14839844 -9.73632812 19.41992188 C-9.28002251 14.90862427 -9.28002251 14.90862427 -13 13 C-14.29482072 0 -14.29482072 0 0 0 Z " fill="#F6F6F5" transform="translate(258,179)"/>
<path d="M0 0 C0.90105469 0.01804687 1.80210937 0.03609375 2.73046875 0.0546875 C3.41753906 0.07789063 4.10460937 0.10109375 4.8125 0.125 C4.72162109 0.72449463 4.63074219 1.32398926 4.53710938 1.94165039 C4.12361974 4.68950105 3.71800618 7.43846034 3.3125 10.1875 C3.09787109 11.60192383 3.09787109 11.60192383 2.87890625 13.04492188 C2.13440861 18.13232242 1.64136434 22.9837994 1.8125 28.125 C2.8025 27.795 3.7925 27.465 4.8125 27.125 C5.23240006 31.84887562 5.15750817 33.82470156 0.8125 36.125 C0.1525 36.125 -0.5075 36.125 -1.1875 36.125 C-1.56059899 37.78321773 -1.89450977 39.45077014 -2.1875 41.125 C-2.5175 41.125 -2.8475 41.125 -3.1875 41.125 C-3.084375 40.320625 -2.98125 39.51625 -2.875 38.6875 C-2.81704591 35.78758507 -2.81704591 35.78758507 -5.6875 35.625 C-8.1875 35.125 -8.1875 35.125 -8.75 32.6875 C-8.1875 30.125 -8.1875 30.125 -6.16796875 29.23828125 C-3.42128595 27.69428796 -3.75594308 26.78603512 -3.9375 23.75 C-3.99164063 22.59371094 -3.99164063 22.59371094 -4.046875 21.4140625 C-4.09328125 20.65867187 -4.1396875 19.90328125 -4.1875 19.125 C-4.1875 17.805 -4.1875 16.485 -4.1875 15.125 C-4.8475 14.96 -5.5075 14.795 -6.1875 14.625 C-8.1875 14.125 -8.1875 14.125 -8.1875 10.125 C-13.1375 10.125 -18.0875 10.125 -23.1875 10.125 C-23.1875 3.64508069 -15.70603193 3.4843402 -10.4921875 2.65234375 C-6.35779147 1.70633788 -4.48646378 -0.11653153 0 0 Z " fill="#5D5C5B" transform="translate(283.1875,301.875)"/>
<path d="M0 0 C1.28100586 0.00483398 1.28100586 0.00483398 2.58789062 0.00976562 C3.48572266 0.01814453 4.38355469 0.02652344 5.30859375 0.03515625 C6.21029297 0.03966797 7.11199219 0.04417969 8.04101562 0.04882812 C10.27610689 0.060654 12.51106812 0.07713405 14.74609375 0.09765625 C13.75609375 0.42765625 12.76609375 0.75765625 11.74609375 1.09765625 C11.32519564 3.91580514 11.32519564 3.91580514 11.453125 7.3203125 C11.46279297 8.58037109 11.47246094 9.84042969 11.48242188 11.13867188 C11.50749175 12.4791727 11.53288663 13.81966749 11.55859375 15.16015625 C11.5736338 16.50454268 11.58732339 17.84894495 11.59960938 19.19335938 C11.6351129 22.49518743 11.68456467 25.79622693 11.74609375 29.09765625 C11.08609375 29.09765625 10.42609375 29.09765625 9.74609375 29.09765625 C9.74609375 20.18765625 9.74609375 11.27765625 9.74609375 2.09765625 C5.45609375 2.09765625 1.16609375 2.09765625 -3.25390625 2.09765625 C-3.13015625 4.22203125 -3.00640625 6.34640625 -2.87890625 8.53515625 C-2.77449219 10.32759766 -2.77449219 10.32759766 -2.66796875 12.15625 C-2.64475862 15.24529462 -2.64475862 15.24529462 -0.25390625 16.09765625 C0.0851182 18.63883953 0.25446 20.98616287 0.30859375 23.53515625 C0.38303711 24.57639648 0.38303711 24.57639648 0.45898438 25.63867188 C0.60745817 32.94216872 -3.97040512 32.74075395 -10.12890625 33.41015625 C-12.25390625 33.09765625 -12.25390625 33.09765625 -13.25390625 30.09765625 C-10.50311741 29.18072664 -8.89441712 28.98879542 -6.06640625 29.03515625 C-4.17921875 29.06609375 -4.17921875 29.06609375 -2.25390625 29.09765625 C-2.34051314 27.11764346 -2.44867148 25.13856215 -2.56640625 23.16015625 C-2.62441406 22.05800781 -2.68242187 20.95585937 -2.7421875 19.8203125 C-2.91323197 16.7256883 -2.91323197 16.7256883 -6.25390625 16.09765625 C-6.58390625 16.75765625 -6.91390625 17.41765625 -7.25390625 18.09765625 C-7.25390625 17.43765625 -7.25390625 16.77765625 -7.25390625 16.09765625 C-40.45954387 27.55333727 -49.85022198 50.78082904 -49.86328125 83.8046875 C-49.87828582 85.98330399 -49.89501769 88.1619092 -49.91339111 90.34049988 C-49.95682102 96.03346318 -49.97700947 101.72627308 -49.99212646 107.41937256 C-50.01178584 113.24516783 -50.05374561 119.07079957 -50.09375 124.89648438 C-50.16878796 136.29682425 -50.2192389 147.69712706 -50.25390625 159.09765625 C-51.25390625 159.09765625 -51.25390625 159.09765625 -51.31878662 155.38201904 C-51.51846597 143.78970849 -51.69602869 132.19723869 -51.85230637 120.60425949 C-51.93333889 114.64511371 -52.02198244 108.68628955 -52.12841797 102.72753906 C-52.23097316 96.96997916 -52.31301541 91.21244933 -52.38123322 85.45438385 C-52.41070311 83.26481472 -52.44738803 81.07532967 -52.49163055 78.88600922 C-52.92797576 56.8442084 -52.92797576 56.8442084 -48.25390625 47.09765625 C-47.95852463 46.46067307 -47.66314301 45.82368988 -47.35881042 45.16740417 C-39.46307262 29.55030452 -23.74100891 14.09765625 -5.25390625 14.09765625 C-5.26550781 13.17082031 -5.27710938 12.24398437 -5.2890625 11.2890625 C-5.29808594 10.09152344 -5.30710938 8.89398438 -5.31640625 7.66015625 C-5.32800781 6.46519531 -5.33960938 5.27023438 -5.3515625 4.0390625 C-5.20181127 -0.47144441 -4.08430912 -0.0270484 0 0 Z " fill="#70706F" transform="translate(248.25390625,176.90234375)"/>
<path d="M0 0 C0.33 0 0.66 0 1 0 C1 40.26 1 80.52 1 122 C3.43378034 122.33319749 3.43378034 122.33319749 3.07592773 119.34130859 C3.17145384 116.06482809 3.27066243 112.78850102 3.37231445 109.51220703 C3.41544251 108.09818835 3.45713168 106.68412498 3.49731445 105.27001953 C3.5555575 103.2293556 3.61909141 101.18891205 3.68359375 99.1484375 C3.73858032 97.31031494 3.73858032 97.31031494 3.79467773 95.43505859 C4.35863539 86 4.35863539 86 6 86 C6.14668216 90.33336556 6.28878831 94.66685398 6.42724609 99.00048828 C6.47459184 100.46439334 6.52303653 101.92826341 6.57275391 103.39208984 C6.97511468 115.27404976 7 127.10043025 7 139 C25.48 139 43.96 139 63 139 C63 139.33 63 139.66 63 140 C38.25 140 13.5 140 -12 140 C-12 139.67 -12 139.34 -12 139 C-8.04 139 -4.08 139 0 139 C0 93.13 0 47.26 0 0 Z " fill="#5B5959" transform="translate(209,248)"/>
<path d="M0 0 C0 3 0 3 -1 6 C-2.32 6 -3.64 6 -5 6 C-5 7.32 -5 8.64 -5 10 C-5.66 10 -6.32 10 -7 10 C-7.66179847 11.98045559 -7.66179847 11.98045559 -8 14 C-4.15947693 11.68405606 -4.15947693 11.68405606 -4 7 C-2.28515625 6.05859375 -2.28515625 6.05859375 -0.0625 5.4375 C3.60402147 4.55552602 3.60402147 4.55552602 5 1 C5.99 1 6.98 1 8 1 C7.67 2.32 7.34 3.64 7 5 C10.91279544 4.92407583 10.91279544 4.92407583 12 2 C12.66 2 13.32 2 14 2 C14 1.34 14 0.68 14 0 C17.89218882 0 18.42199218 1.2556691 21 4 C21.66 4.33 22.32 4.66 23 5 C23 8.29977214 20.87032136 7.72663606 18 8 C17.34 7.34 16.68 6.68 16 6 C14.6078125 7.299375 14.6078125 7.299375 13.1875 8.625 C10 11 10 11 7 9 C7 8.01 7 7.02 7 6 C3.01248179 9.25087471 3.01248179 9.25087471 -0.75 12.75 C-2 14 -2 14 -4 15 C-4 15.66 -4 16.32 -4 17 C-7.52027387 19.54242002 -11.04464469 19.20287695 -15.25 19.125 C-16.51328125 19.10695312 -17.7765625 19.08890625 -19.078125 19.0703125 C-22 19 -22 19 -22 16 C-20.35511706 14.31183067 -18.68662458 12.64646685 -17 11 C-16.649375 10.21625 -16.29875 9.4325 -15.9375 8.625 C-14.50534766 6.14260261 -13.50076998 7.29665844 -11 8 C-8.7226499 5.18490007 -8.7226499 5.18490007 -9 2 C-7.03125 1.26953125 -7.03125 1.26953125 -4.5 0.8125 C-3.24703125 0.57466797 -3.24703125 0.57466797 -1.96875 0.33203125 C-1.3190625 0.22246094 -0.669375 0.11289063 0 0 Z " fill="#BABAB9" transform="translate(235,219)"/>
<path d="M0 0 C0.33 0 0.66 0 1 0 C1 19 1 19 -4.58203125 19.10546875 C-6.9921784 19.13360276 -9.40233539 19.16090333 -11.8125 19.1875 C-13.63491211 19.22520508 -13.63491211 19.22520508 -15.49414062 19.26367188 C-17.23920898 19.27817383 -17.23920898 19.27817383 -19.01953125 19.29296875 C-20.09307861 19.3086792 -21.16662598 19.32438965 -22.27270508 19.34057617 C-27.3447163 18.70719907 -28 16.95797981 -28 12 C-28.68626465 12.01047363 -29.3725293 12.02094727 -30.07958984 12.03173828 C-33.17802289 12.07321874 -36.27639761 12.09930069 -39.375 12.125 C-40.99535156 12.15013672 -40.99535156 12.15013672 -42.6484375 12.17578125 C-43.6796875 12.18222656 -44.7109375 12.18867188 -45.7734375 12.1953125 C-47.20308838 12.21102295 -47.20308838 12.21102295 -48.66162109 12.22705078 C-51 12 -51 12 -53 10 C-35.51 10 -18.02 10 0 10 C0 6.7 0 3.4 0 0 Z " fill="#DBDBDA" transform="translate(289,368)"/>
<path d="M0 0 C0.33 0 0.66 0 1 0 C1.17814273 10.5414959 1.34363059 21.08316002 1.5 31.625 C1.51187725 32.42526989 1.5237545 33.22553978 1.53599167 34.05006027 C1.94043279 61.55486156 2.08975554 89.05485129 2.0625 116.5625 C2.06164398 117.43272041 2.06078796 118.30294083 2.05990601 119.19953156 C2.04868846 129.79971271 2.02802789 140.39985065 2 151 C-13 150 -13 150 -12 87 C-11.67 87 -11.34 87 -11 87 C-11 107.13 -11 127.26 -11 148 C-7.7 148 -4.4 148 -1 148 C-1 141.73 -1 135.46 -1 129 C-0.67 129 -0.34 129 0 129 C0 86.43 0 43.86 0 0 Z " fill="#6C6C6B" transform="translate(306,239)"/>
<path d="M0 0 C2.62494865 0.23334966 5.15252105 0.34937493 7.78125 0.37890625 C8.9351825 0.40439796 8.9351825 0.40439796 10.11242676 0.43040466 C12.57486734 0.48361768 15.0372909 0.52386268 17.5 0.5625 C19.96262189 0.6064154 22.42511235 0.65312379 24.88757324 0.70530701 C26.42108322 0.73727688 27.95470907 0.76416309 29.48840332 0.78553772 C37 0.93152147 37 0.93152147 37 4 C36.4527124 3.83773926 35.9054248 3.67547852 35.34155273 3.50830078 C32.67860981 2.9302331 30.26019339 2.87041376 27.53515625 2.8671875 C25.96411133 2.86525391 25.96411133 2.86525391 24.36132812 2.86328125 C23.27271484 2.86714844 22.18410156 2.87101563 21.0625 2.875 C19.97775391 2.87113281 18.89300781 2.86726562 17.77539062 2.86328125 C16.72673828 2.86457031 15.67808594 2.86585938 14.59765625 2.8671875 C13.16691772 2.86887939 13.16691772 2.86887939 11.70727539 2.87060547 C4.05650366 3.21088168 4.05650366 3.21088168 2 10 C-1.28855616 11.73562686 -3.20883616 12 -7 12 C-6.773125 12.598125 -6.54625 13.19625 -6.3125 13.8125 C-5.89305488 16.74861583 -6.68984434 17.28877358 -9 19 C-9.66 19 -10.32 19 -11 19 C-10.25 15 -10.25 15 -8 15 C-8 13.68 -8 12.36 -8 11 C-6.0625 9.9375 -6.0625 9.9375 -4 9 C-3.67 8.01 -3.34 7.02 -3 6 C-4.50302863 6.25348697 -6.00248463 6.5282494 -7.5 6.8125 C-8.3353125 6.96332031 -9.170625 7.11414063 -10.03125 7.26953125 C-12.46877332 7.8239472 -12.46877332 7.8239472 -12 11 C-14.44186047 14.37209302 -14.44186047 14.37209302 -18 12 C-19.8213218 16.01148518 -19.8213218 16.01148518 -19 20 C-20.65 20.33 -22.3 20.66 -24 21 C-22.72213547 16.44095205 -21.04535156 13.4232569 -18 9.8125 C-15.85536758 7.24603731 -13.85731759 4.78597639 -12 2 C-10.125 1.0859375 -10.125 1.0859375 -8 0.375 C-1.75890411 -1.75890411 -1.75890411 -1.75890411 0 0 Z " fill="#6F6F6E" transform="translate(238,214)"/>
<path d="M0 0 C10.02219759 0 1.66611219 19.98336567 2 30 C48.53 30.495 48.53 30.495 96 31 C96 22.75 96 14.5 96 6 C99.72677996 6 97.6625932 13.28852515 98 17 C98.33 17 98.66 17 99 17 C99.02685412 19.31243792 99.04632841 21.6249627 99.0625 23.9375 C99.07410156 25.22527344 99.08570313 26.51304687 99.09765625 27.83984375 C98.90353136 34.1217252 93.93957643 32.13341332 88.89038086 32.11352539 C87.93438492 32.11367142 86.97838898 32.11381744 85.99342346 32.1139679 C82.81720755 32.11326835 79.64104948 32.10547403 76.46484375 32.09765625 C74.26908907 32.09579222 72.07333398 32.09436825 69.87757874 32.09336853 C64.08579367 32.08954219 58.2940335 32.07971091 52.5022583 32.06866455 C46.59721209 32.05845293 40.69216187 32.05387145 34.78710938 32.04882812 C23.19139352 32.03808874 11.59570272 32.02049101 0 32 C0 21.44 0 10.88 0 0 Z " fill="#010000" transform="translate(195,357)"/>
<path d="M0 0 C0.14191305 27.01806085 -0.20766839 53.99329265 -1 81 C-15.68181036 81 -2.66640864 51.67802004 -3 37 C-3.99 38.32 -4.98 39.64 -6 41 C-5.47731534 38.23723823 -4.89130413 35.6739124 -4 33 C-6.97 33 -9.94 33 -13 33 C-11.8512638 29.55379139 -10.92418358 28.90830804 -8.0625 26.8125 C-7.35222656 26.28269531 -6.64195312 25.75289063 -5.91015625 25.20703125 C-4 24 -4 24 -2 24 C-1 0 -1 0 0 0 Z " fill="#B5B4B4" transform="translate(292,269)"/>
<path d="M0 0 C0 5.94 0 11.88 0 18 C16.5 18 33 18 50 18 C50 18.33 50 18.66 50 19 C32.84 19 15.68 19 -2 19 C-2 13.06 -2 7.12 -2 1 C-4.475 0.505 -4.475 0.505 -7 0 C-7.99 -0.66 -8.98 -1.32 -10 -2 C-12.06910593 -2.02749478 -12.06910593 -2.02749478 -14.1875 -1.625 C-16.0746875 -1.315625 -16.0746875 -1.315625 -18 -1 C-18 -0.34 -18 0.32 -18 1 C-19.98 1.33 -21.96 1.66 -24 2 C-24 7.61 -24 13.22 -24 19 C-26.203116 19 -25.57623829 9.17272858 -25.6262207 7.07250977 C-25.50694752 -0.57904549 -23.57520168 -2.65242526 -16 -4 C-10.27227998 -7.81848001 -5.51397296 -3.15084169 0 0 Z " fill="#4F4E4C" transform="translate(263,105)"/>
<path d="M0 0 C0.02486852 5.67423184 0.04293935 11.34843138 0.05493164 17.02270508 C0.05993539 18.94979404 0.06674045 20.87687925 0.07543945 22.80395508 C0.08767948 25.58676076 0.09326804 28.36951589 0.09765625 31.15234375 C0.10281754 32.00271713 0.10797882 32.85309052 0.11329651 33.72923279 C0.11380299 39.22895519 -0.30618608 44.5431175 -1 50 C-1.33 50 -1.66 50 -2 50 C-1.98839844 50.81855469 -1.97679687 51.63710938 -1.96484375 52.48046875 C-3.78325014 56.90640129 -8.28445373 55.51212169 -12.5625 55.3125 C-13.46419922 55.28994141 -14.36589844 55.26738281 -15.29492188 55.24414062 C-22 55.06675761 -22 55.06675761 -22 54 C-16.06 54 -10.12 54 -4 54 C-4.02320313 51.41027344 -4.04640625 48.82054687 -4.0703125 46.15234375 C-4.08593751 43.62703948 -4.09806601 41.10174073 -4.10986328 38.57641602 C-4.11988268 36.82964645 -4.13350195 35.0828935 -4.15087891 33.33618164 C-4.17530669 30.81652715 -4.18652389 28.29709561 -4.1953125 25.77734375 C-4.20563507 25.00414291 -4.21595764 24.23094208 -4.22659302 23.43431091 C-4.22757663 18.61436572 -3.49888468 14.62950315 -2 10 C-1.73957864 8.19424815 -1.52444952 6.38080247 -1.375 4.5625 C-1.30023438 3.69753906 -1.22546875 2.83257812 -1.1484375 1.94140625 C-1 0 -1 0 0 0 Z " fill="#2E2D2E" transform="translate(294,333)"/>
<path d="M0 0 C2.5625 0.25 2.5625 0.25 3.5625 4.25 C-12.6075 4.58 -28.7775 4.91 -45.4375 5.25 C-45.7675 29.34 -46.0975 53.43 -46.4375 78.25 C-46.7675 78.25 -47.0975 78.25 -47.4375 78.25 C-47.44780746 77.48737854 -47.45811493 76.72475708 -47.46873474 75.93902588 C-47.56728692 68.70235495 -47.66987547 61.46575718 -47.77683926 54.22920609 C-47.83167357 50.51008964 -47.88502365 46.790965 -47.93481445 43.07177734 C-47.98304901 39.47312338 -48.03540072 35.87454942 -48.09044075 32.27599335 C-48.12031673 30.25566965 -48.1460821 28.23528648 -48.17173767 26.21490479 C-48.19168289 24.95450378 -48.21162811 23.69410278 -48.23217773 22.39550781 C-48.24772202 21.30296692 -48.2632663 20.21042603 -48.27928162 19.08477783 C-48.49745249 13.79691676 -48.99799343 8.5240788 -49.4375 3.25 C-33.9275 2.92 -18.4175 2.59 -2.4375 2.25 C-2.4375 0.25 -2.4375 0.25 0 0 Z " fill="#4C4A49" transform="translate(264.4375,243.75)"/>
<path d="M0 0 C23.20470648 0.40008115 44.88582584 23.34512549 46 46 C43.56980409 43.56980409 43.21486325 41.78392053 42.25 38.5 C36.05232266 19.28489629 22.03188459 7.87642929 2.75 2.8125 C0 2 0 2 0 0 Z " fill="#292828" transform="translate(259,191)"/>
<path d="M0 0 C0 3 0 3 -1 6 C-2.32 6 -3.64 6 -5 6 C-5 7.32 -5 8.64 -5 10 C-5.66 10 -6.32 10 -7 10 C-7.33 10.99 -7.66 11.98 -8 13 C-11 14 -11 14 -12 13 C-12.33 13.99 -12.66 14.98 -13 16 C-13.66 16.66 -14.32 17.32 -15 18 C-15 18.33 -15 18.66 -15 19 C-17.31 19 -19.62 19 -22 19 C-22 14.78011682 -19.94357105 13.87348602 -17 11 C-16.649375 10.21625 -16.29875 9.4325 -15.9375 8.625 C-14.50534766 6.14260261 -13.50076998 7.29665844 -11 8 C-8.7226499 5.18490007 -8.7226499 5.18490007 -9 2 C-7.03125 1.26953125 -7.03125 1.26953125 -4.5 0.8125 C-3.24703125 0.57466797 -3.24703125 0.57466797 -1.96875 0.33203125 C-1.3190625 0.22246094 -0.669375 0.11289063 0 0 Z " fill="#868584" transform="translate(235,219)"/>
<path d="M0 0 C0.05773018 4.31244437 0.09350395 8.62479049 0.125 12.9375 C0.14175781 14.16919922 0.15851563 15.40089844 0.17578125 16.66992188 C0.18222656 17.83974609 0.18867188 19.00957031 0.1953125 20.21484375 C0.20578613 21.29886475 0.21625977 22.38288574 0.22705078 23.49975586 C0 26 0 26 -2 27 C-2 26.01 -2 25.02 -2 24 C-4.42163702 23.68377223 -4.42163702 23.68377223 -5 27 C-6.61416697 23.77166607 -5.9463882 20.33260963 -5.75 16.8125 C-5.72292969 16.06935547 -5.69585937 15.32621094 -5.66796875 14.56054688 C-5.48460901 11.18613608 -4.75598683 0 0 0 Z " fill="#F3F2F3" transform="translate(290,305)"/>
<path d="M0 0 C0.99 0.66 1.98 1.32 3 2 C3.66 2 4.32 2 5 2 C14.92774309 13.14451383 14.92774309 13.14451383 13 17 C12.01 17 11.02 17 10 17 C10 16.34 10 15.68 10 15 C9.34 14.67 8.68 14.34 8 14 C8.66 14 9.32 14 10 14 C9.41829967 10.59209287 9.41829967 10.59209287 7.3125 11.4375 C5.67668918 11.83539993 4.02877548 12.18499515 2.375 12.5 C-0.00287908 12.89587313 -0.00287908 12.89587313 -2 14 C-3 11 -3 11 -1 10 C-0.67 9.01 -0.34 8.02 0 7 C-0.99 6.67 -1.98 6.34 -3 6 C-3.33 6.99 -3.66 7.98 -4 9 C-7.36134454 3.95798319 -7.36134454 3.95798319 -4 1 C-3.814375 1.99 -3.814375 1.99 -3.625 3 C-3.24980531 5.31815999 -3.24980531 5.31815999 -1 5 C-1.33 4.01 -1.66 3.02 -2 2 C-1.34 2 -0.68 2 0 2 C0 1.34 0 0.68 0 0 Z " fill="#6C6968" transform="translate(275,218)"/>
<path d="M0 0 C0.16985942 5.29761118 0.33013468 10.59540219 0.48217773 15.89355469 C0.53499107 17.68952916 0.59025847 19.48543344 0.64819336 21.28125 C0.99021933 31.94056365 1.06066756 42.37120415 0 53 C-0.66 53 -1.32 53 -2 53 C-2.02540371 46.41634955 -2.04288948 39.83271179 -2.05493164 33.24902344 C-2.05995313 31.01041186 -2.06677158 28.77180355 -2.07543945 26.53320312 C-2.08760069 23.3111897 -2.09325024 20.08921973 -2.09765625 16.8671875 C-2.10539818 15.37153763 -2.10539818 15.37153763 -2.11329651 13.84567261 C-2.11440842 0 -2.11440842 0 0 0 Z " fill="#736E6D" transform="translate(215,334)"/>
<path d="M0 0 C4.38431548 0 1.66373835 8.62859859 2 13 C2.309375 11.515 2.61875 10.03 2.9375 8.5 C3.875 4 3.875 4 5 4 C5.37309899 5.65821773 5.70700977 7.32577014 6 9 C6.99 8.67 7.98 8.34 9 8 C9.41990006 12.72387562 9.34500817 14.69970156 5 17 C4.34 17 3.68 17 3 17 C2.62690101 18.65821773 2.29299023 20.32577014 2 22 C1.67 22 1.34 22 1 22 C1.1546875 20.7934375 1.1546875 20.7934375 1.3125 19.5625 C1.37045409 16.66258507 1.37045409 16.66258507 -1.5 16.5 C-4 16 -4 16 -4.5625 13.5625 C-4 11 -4 11 -1.98046875 10.12890625 C0.81685648 8.5343757 0.4268528 7.46992396 0.25 4.375 C0.21390625 3.55773437 0.1778125 2.74046875 0.140625 1.8984375 C0.09421875 1.27195312 0.0478125 0.64546875 0 0 Z " fill="#807F7E" transform="translate(279,321)"/>
<path d="M0 0 C0.9796875 0.00322266 1.959375 0.00644531 2.96875 0.00976562 C3.98453125 0.01814453 5.0003125 0.02652344 6.046875 0.03515625 C7.59375 0.04192383 7.59375 0.04192383 9.171875 0.04882812 C11.71360073 0.06059537 14.25520819 0.07703614 16.796875 0.09765625 C15.806875 0.42765625 14.816875 0.75765625 13.796875 1.09765625 C13.796875 1.75765625 13.796875 2.41765625 13.796875 3.09765625 C16.436875 3.09765625 19.076875 3.09765625 21.796875 3.09765625 C21.796875 3.42765625 21.796875 3.75765625 21.796875 4.09765625 C17.54276212 4.17162433 13.28898634 4.22617008 9.03442383 4.26245117 C7.58611536 4.27756989 6.13785289 4.29806522 4.68969727 4.32397461 C2.61202674 4.36022545 0.53495946 4.37735047 -1.54296875 4.390625 C-2.79456787 4.40633545 -4.04616699 4.4220459 -5.33569336 4.43823242 C-8.203125 4.09765625 -8.203125 4.09765625 -9.203125 1.09765625 C-6.06462436 0.17211882 -3.26631722 -0.01899022 0 0 Z " fill="#191716" transform="translate(246.203125,210.90234375)"/>
<path d="M0 0 C0 0.99 0 1.98 0 3 C-7.26 3 -14.52 3 -22 3 C-22 1 -22 1 -16 0 C-16 -0.66 -16 -1.32 -16 -2 C-10.73044109 -5.70820812 -5.15149501 -2.62625236 0 0 Z " fill="#B9BABA" transform="translate(261,106)"/>
<path d="M0 0 C1.63636364 4.36363636 1.63636364 4.36363636 0 6 C-1.78071246 6.08726223 -3.5648314 6.10699041 -5.34765625 6.09765625 C-6.42724609 6.09443359 -7.50683594 6.09121094 -8.61914062 6.08789062 C-9.75544922 6.07951172 -10.89175781 6.07113281 -12.0625 6.0625 C-13.20267578 6.05798828 -14.34285156 6.05347656 -15.51757812 6.04882812 C-18.34510351 6.03699747 -21.1725264 6.0205141 -24 6 C-20.992472 3.99498133 -19.88768868 3.68193606 -16.4375 3.375 C-15.65246094 3.30023438 -14.86742187 3.22546875 -14.05859375 3.1484375 C-12 3 -12 3 -10 3 C-9.4225 2.319375 -8.845 1.63875 -8.25 0.9375 C-5.17124359 -1.71365135 -3.71820778 -1.40465627 0 0 Z " fill="#F1F1F1" transform="translate(255,232)"/>
<path d="M0 0 C0.33 0.99 0.66 1.98 1 3 C1.99 3.66 2.98 4.32 4 5 C3 8 3 8 -3 7 C-2.34 7.66 -1.68 8.32 -1 9 C-4.75 10.125 -4.75 10.125 -7 9 C-7.33 9.99 -7.66 10.98 -8 12 C-11.5625 12.6875 -11.5625 12.6875 -15 13 C-14 11 -14 11 -11 11 C-11.33 10.01 -11.66 9.02 -12 8 C-10.824375 7.87625 -10.824375 7.87625 -9.625 7.75 C-6.33590887 6.81025968 -6.25560749 6.04933246 -5 3 C-2.42857143 0 -2.42857143 0 0 0 Z " fill="#A1A2A0" transform="translate(242,225)"/>
<path d="M0 0 C1.98 0 3.96 0 6 0 C4.85086841 4.40500444 4.28217701 6.28712919 0 8 C0 8.66 0 9.32 0 10 C-3.46782961 12.49683732 -6.86523255 12.15902952 -11 12 C-11 11.01 -11 10.02 -11 9 C-10.34 9 -9.68 9 -9 9 C-8.33820153 7.01954441 -8.33820153 7.01954441 -8 5 C-7.05125 5.2475 -6.1025 5.495 -5.125 5.75 C-1.22757281 6.06179418 -1.02834943 5.599223 0 2 C0 1.34 0 0.68 0 0 Z " fill="#A4A4A3" transform="translate(231,226)"/>
<path d="M0 0 C-0.75 5 -0.75 5 -3 5 C-3.66 4.01 -4.32 3.02 -5 2 C-6.58925565 5.11785113 -6.58925565 5.11785113 -4 6 C-4 6.66 -4 7.32 -4 8 C-3.67 7.34 -3.34 6.68 -3 6 C-0.9375 6.375 -0.9375 6.375 1 7 C-6.53424658 12.12328767 -6.53424658 12.12328767 -12 9 C-15.06681349 4.55312044 -10.38610322 2.57343845 -7 0 C-5.3043511 -3.3912978 -3.09514765 -1.03171588 0 0 Z " fill="#A9A6A6" transform="translate(275,218)"/>
<path d="M0 0 C0.52207031 0.66386719 1.04414063 1.32773438 1.58203125 2.01171875 C5.20638949 4.99200686 8.68697404 4.67157299 13.25 4.75 C14.09046875 4.77964844 14.9309375 4.80929688 15.796875 4.83984375 C17.8640715 4.91031636 19.93204033 4.95744939 22 5 C22 8.57596541 17.06313563 7.1414434 14.01953125 7.1953125 C12.40111328 7.22238281 12.40111328 7.22238281 10.75 7.25 C9.68652344 7.28351563 8.62304688 7.31703125 7.52734375 7.3515625 C6.50253906 7.36445313 5.47773438 7.37734375 4.421875 7.390625 C3.47924805 7.41157227 2.53662109 7.43251953 1.56542969 7.45410156 C-1.72242524 6.87212496 -2.84655172 5.46822995 -5 3 C-5.33 3 -5.66 3 -6 3 C-6.66 2.67 -7.32 2.34 -8 2 C-5.45409417 -1.3498761 -3.89820618 -1.42617299 0 0 Z " fill="#A3A3A2" transform="translate(269,231)"/>
<path d="M0 0 C2.97 0 5.94 0 9 0 C9 1.32 9 2.64 9 4 C9.99 4.33 10.98 4.66 12 5 C12 7 12 7 9.4453125 7.0703125 C7.80175781 7.09738281 7.80175781 7.09738281 6.125 7.125 C5.03445313 7.14820313 3.94390625 7.17140625 2.8203125 7.1953125 C-1.22662315 6.9150538 -2 6.05314035 -2 2 C-1.34 2 -0.68 2 0 2 C0 1.34 0 0.68 0 0 Z " fill="#F9F9F9" transform="translate(252,380)"/>
<path d="M0 0 C-2.96250432 5.45100794 -5.05841902 6.59562631 -11 8 C-12.90170054 9.47761659 -12.90170054 9.47761659 -14 11 C-14 10.01 -14 9.02 -14 8 C-16.31 9.98 -18.62 11.96 -21 14 C-17.75481611 7.50963222 -8.13771838 -3.44288085 0 0 Z " fill="#131212" transform="translate(237,209)"/>
<path d="M0 0 C6.27 0 12.54 0 19 0 C18.01 0.33 17.02 0.66 16 1 C15.57910189 3.81814889 15.57910189 3.81814889 15.70703125 7.22265625 C15.7215332 9.11274414 15.7215332 9.11274414 15.73632812 11.04101562 C15.761398 12.38151645 15.78679288 13.72201124 15.8125 15.0625 C15.82754005 16.40688643 15.84122964 17.7512887 15.85351562 19.09570312 C15.88901915 22.39753118 15.93847092 25.69857068 16 29 C15.34 29 14.68 29 14 29 C14 20.09 14 11.18 14 2 C11.36 2 8.72 2 6 2 C0 1.14285714 0 1.14285714 0 0 Z " fill="#757473" transform="translate(244,177)"/>
<path d="M0 0 C11.68727315 5.18016692 17.59155268 19.95080404 18 32 C15.56980409 29.56980409 15.21486325 27.78392053 14.25 24.5 C11.23764642 15.17286078 6.02197932 7.6449241 0 0 Z " fill="#292727" transform="translate(287,205)"/>
<path d="M0 0 C-2.625 3 -2.625 3 -6 3 C-6 3.66 -6 4.32 -6 5 C-6.66 5 -7.32 5 -8 5 C-8 5.66 -8 6.32 -8 7 C-8.66 7 -9.32 7 -10 7 C-10.33 7.66 -10.66 8.32 -11 9 C-13 8 -13 8 -12.375 6.0625 C-11.80983357 2.95408463 -13.30275109 2.98081779 -16 2 C-14.865625 1.855625 -13.73125 1.71125 -12.5625 1.5625 C-2.42307692 -0.03846154 -2.42307692 -0.03846154 0 0 Z " fill="#848483" transform="translate(255,216)"/>
<path d="M0 0 C0.99 0.66 1.98 1.32 3 2 C3.66 2 4.32 2 5 2 C5.93832291 4.55906249 6.24434145 5.51131711 5 8 C3.68 8 2.36 8 1 8 C1 7.34 1 6.68 1 6 C-3.31622777 5.36754447 -3.31622777 5.36754447 -4 9 C-7.36134454 3.95798319 -7.36134454 3.95798319 -4 1 C-3.814375 1.99 -3.814375 1.99 -3.625 3 C-3.24980531 5.31815999 -3.24980531 5.31815999 -1 5 C-1.33 4.01 -1.66 3.02 -2 2 C-1.34 2 -0.68 2 0 2 C0 1.34 0 0.68 0 0 Z " fill="#7E7A7A" transform="translate(275,218)"/>
<path d="M0 0 C0.33 0.66 0.66 1.32 1 2 C-0.36125 1.9690625 -0.36125 1.9690625 -1.75 1.9375 C-6.93260957 1.58958993 -6.93260957 1.58958993 -9 5 C-10.98 5.33 -12.96 5.66 -15 6 C-15 11.61 -15 17.22 -15 23 C-17.203116 23 -16.57623829 13.17272858 -16.6262207 11.07250977 C-16.50694752 3.42095451 -14.57520168 1.34757474 -7 0 C-3.44652105 -2.36898597 -3.32172018 -2.21448012 0 0 Z " fill="#494847" transform="translate(254,101)"/>
<path d="M0 0 C0 3 0 3 -1 6 C-2.32 6 -3.64 6 -5 6 C-5 7.32 -5 8.64 -5 10 C-5.66 10 -6.32 10 -7 10 C-7 10.66 -7 11.32 -7 12 C-7.66 12 -8.32 12 -9 12 C-8.79375 11.195625 -8.5875 10.39125 -8.375 9.5625 C-7.55997289 6.82428146 -7.55997289 6.82428146 -10 6 C-9.81332385 1.87689204 -8.26338622 1.39662866 -4.4375 0.75 C-3.19806641 0.52570313 -3.19806641 0.52570313 -1.93359375 0.296875 C-1.29550781 0.19890625 -0.65742188 0.1009375 0 0 Z " fill="#9A9A99" transform="translate(235,219)"/>
<path d="M0 0 C1.12298921 8.46561098 0.80542989 16.51200811 0 25 C-0.66 25 -1.32 25 -2 25 C-2.02917228 21.77085248 -2.04685663 18.54173917 -2.0625 15.3125 C-2.07087891 14.40048828 -2.07925781 13.48847656 -2.08789062 12.54882812 C-2.09111328 11.66259766 -2.09433594 10.77636719 -2.09765625 9.86328125 C-2.10289307 9.05157471 -2.10812988 8.23986816 -2.11352539 7.40356445 C-1.76383951 0 -1.76383951 0 0 0 Z " fill="#A09D9B" transform="translate(215,362)"/>
<path d="M0 0 C3.81237852 1.27079284 3.36565328 1.42324542 3.2487793 5.15258789 C3.22853195 6.03342545 3.20828461 6.914263 3.18742371 7.8217926 C3.15006607 8.77907761 3.11270844 9.73636261 3.07421875 10.72265625 C3.04777786 11.69786728 3.02133698 12.67307831 2.99409485 13.67784119 C2.90600294 16.80666094 2.79696926 19.9343621 2.6875 23.0625 C2.62427542 25.1776937 2.56240827 27.29292845 2.50195312 29.40820312 C2.04737474 45 2.04737474 45 1 45 C0.67 30.15 0.34 15.3 0 0 Z " fill="#5B5957" transform="translate(303,235)"/>
<path d="M0 0 C0.33 3.63 0.66 7.26 1 11 C1.33 11 1.66 11 2 11 C2.1073733 13.31150853 2.18529801 15.62440373 2.25 17.9375 C2.29640625 19.22527344 2.3428125 20.51304687 2.390625 21.83984375 C2 25 2 25 -2 26 C-1 0 -1 0 0 0 Z " fill="#080708" transform="translate(292,363)"/>
<path d="M0 0 C-0.63315791 5.12524666 -1.68160656 9.96530771 -3.0625 14.9375 C-3.24876953 15.62134766 -3.43503906 16.30519531 -3.62695312 17.00976562 C-4.08089057 18.67420293 -4.53990916 20.33725312 -5 22 C-8.38898049 18.61101951 -5.08492098 0 0 0 Z " fill="#3A3937" transform="translate(203,220)"/>
<path d="M0 0 C0.0582253 3.08325358 0.09367134 6.16636505 0.125 9.25 C0.14175781 10.12269531 0.15851563 10.99539063 0.17578125 11.89453125 C0.18222656 12.73886719 0.18867188 13.58320313 0.1953125 14.453125 C0.20578613 15.22817383 0.21625977 16.00322266 0.22705078 16.80175781 C-0.02673444 19.25883539 -0.77555848 20.87311542 -2 23 C-3.74473584 21.25526416 -3.13108951 18.8627308 -3.125 16.5 C-3.12757813 15.4996875 -3.13015625 14.499375 -3.1328125 13.46875 C-3 11 -3 11 -2 10 C-1.76712992 8.31816052 -1.58735834 6.6287584 -1.4375 4.9375 C-1.35371094 4.01839844 -1.26992188 3.09929687 -1.18359375 2.15234375 C-1 0 -1 0 0 0 Z " fill="#202021" transform="translate(294,333)"/>
<path d="M0 0 C0 2 0 2 -3 4.375 C-8.21520018 8.64101242 -11.47235678 14.33744542 -15 20 C-16.95739652 14.12781044 -6.40287382 0 0 0 Z " fill="#232220" transform="translate(219,202)"/>
<path d="M0 0 C-3.2170939 2.14472927 -6.55486014 3.88831065 -10 5.625 C-10.6290625 5.94984375 -11.258125 6.2746875 -11.90625 6.609375 C-14.7995587 8.06828913 -16.71452021 9 -20 9 C-16.9885992 5.67732459 -13.99698275 3.70098006 -10 1.6875 C-8.96875 1.15511719 -7.9375 0.62273437 -6.875 0.07421875 C-3.92930523 -1.02641449 -2.85131463 -1.17205481 0 0 Z " fill="#31312E" transform="translate(238,193)"/>
<path d="M0 0 C-3.63195496 2.42130331 -5.38349348 2.21022785 -9.6875 2.125 C-10.86699219 2.10695312 -12.04648437 2.08890625 -13.26171875 2.0703125 C-14.16535156 2.04710937 -15.06898438 2.02390625 -16 2 C-14 -3 -14 -3 0 0 Z " fill="#C1C2C1" transform="translate(271,236)"/>
<path d="M0 0 C-3.625 4.25 -3.625 4.25 -7 2 C-8.8213218 6.01148518 -8.8213218 6.01148518 -8 10 C-9.65 10.33 -11.3 10.66 -13 11 C-11.07036453 4.08547291 -8.03607246 -2.67869082 0 0 Z " fill="#787776" transform="translate(227,224)"/>
<path d="M0 0 C6.76923077 -0.49230769 6.76923077 -0.49230769 7.9375 2 C8 4 8 4 5.6875 4.4375 C2.91827092 4.9632594 2.91827092 4.9632594 0 6 C-1.6875 4.5625 -1.6875 4.5625 -3 3 C0 2 0 2 2 2 C1.34 1.34 0.68 0.68 0 0 Z " fill="#989595" transform="translate(277,228)"/>
<path d="M0 0 C0.33 0.99 0.66 1.98 1 3 C1.99 3.66 2.98 4.32 4 5 C3 8 3 8 -6 6 C-3 0 -3 0 0 0 Z " fill="#818180" transform="translate(242,225)"/>
<path d="M0 0 C1.32 0 2.64 0 4 0 C2.94446046 2.55088723 2.20089325 3.85389582 -0.0625 5.5 C-2.3165808 7.24509481 -2.61851514 8.23423473 -3 11 C-9 8.25 -9 8.25 -9 6 C-7.68 6.33 -6.36 6.66 -5 7 C-4.67 6.01 -4.34 5.02 -4 4 C-3.319375 3.835 -2.63875 3.67 -1.9375 3.5 C0.48413866 3.20855704 0.48413866 3.20855704 0 0 Z " fill="#7D7B7B" transform="translate(265,216)"/>
<path d="M0 0 C2.5625 0.25 2.5625 0.25 3.5625 4.25 C-3.3675 4.25 -10.2975 4.25 -17.4375 4.25 C-17.4375 -0.79424865 -7.47057644 2.58553843 -2.4375 2.25 C-2.4375 0.25 -2.4375 0.25 0 0 Z " fill="#312E2D" transform="translate(264.4375,243.75)"/>
<path d="M0 0 C1.9453125 0.1953125 1.9453125 0.1953125 3.9453125 2.1953125 C1.53023577 5.8179276 1.06949678 5.79885166 -3.0546875 5.1953125 C-8.62561337 0.96909287 -5.3949181 0.17402962 0 0 Z " fill="#DBDAD9" transform="translate(267.0546875,381.8046875)"/>
<path d="M0 0 C-0.33 1.32 -0.66 2.64 -1 4 C-0.34 4 0.32 4 1 4 C0 7 0 7 -4 7 C-6.20067421 7.93283296 -6.20067421 7.93283296 -8 9 C-8 4.89515199 -7.96903147 4.32301049 -4 3 C-3 0 -3 0 0 0 Z " fill="#B6B5B4" transform="translate(243,220)"/>
<path d="M0 0 C-3.01031744 0.93423645 -3.86650268 1.04449911 -7 0 C-9.73289293 -0.22797562 -12.45042204 -0.41668187 -15.1875 -0.5625 C-15.93708984 -0.60568359 -16.68667969 -0.64886719 -17.45898438 -0.69335938 C-19.30578375 -0.79922685 -21.15286834 -0.9000976 -23 -1 C-23 -5.67689855 -3.09641994 -1.85785197 0 0 Z " fill="#9C9B9B" transform="translate(270,212)"/>
<path d="M0 0 C0.46511628 4.53488372 0.46511628 4.53488372 -2 7 C-2.66 7.99 -3.32 8.98 -4 10 C-5.78925039 6.42149922 -6.59791636 -3.29895818 0 0 Z " fill="#E0E0E0" transform="translate(289,322)"/>
<path d="M0 0 C2 1 2 1 3 3 C3.66 2.67 4.32 2.34 5 2 C5 7 5 7 2.625 7.125 C-1.33283286 6.93653177 -2 5.90245421 -2 2 C-1.34 2 -0.68 2 0 2 C0 1.34 0 0.68 0 0 Z " fill="#E7E7E6" transform="translate(252,380)"/>
<path d="M0 0 C3 1 3 1 3 3 C2.0409375 3.1546875 2.0409375 3.1546875 1.0625 3.3125 C-2.01455997 4.33818666 -1.6141598 5.99044646 -2 9 C-2.33 9 -2.66 9 -3 9 C-3 7.35 -3 5.7 -3 4 C-4.32 4 -5.64 4 -7 4 C-6.67 3.01 -6.34 2.02 -6 1 C-3.525 1.99 -3.525 1.99 -1 3 C-0.67 2.01 -0.34 1.02 0 0 Z " fill="#5F5C5B" transform="translate(283,334)"/>
<path d="M0 0 C4 1 4 1 3.3125 4 C1.63777582 7.82794097 0.92333924 7.61947462 -3 7 C-3 6.01 -3 5.02 -3 4 C-2.34 4 -1.68 4 -1 4 C-0.33820153 2.01954441 -0.33820153 2.01954441 0 0 Z " fill="#A3A4A1" transform="translate(223,231)"/>
<path d="M0 0 C0 6.40157246 -3.57184385 5.74151637 -9 6 C-3.15384615 0 -3.15384615 0 0 0 Z " fill="#BDBDBE" transform="translate(289,294)"/>
<path d="M0 0 C-1.64317336 0.24751976 -3.28974631 0.47257561 -4.9375 0.6875 C-5.85402344 0.81511719 -6.77054688 0.94273437 -7.71484375 1.07421875 C-10 1 -10 1 -11 -2 C-6.17889841 -3.60703386 -2.99068962 -4.48603443 0 0 Z " fill="#3A3A39" transform="translate(246,209)"/>
<path d="M0 0 C0.37309899 1.65821773 0.70700977 3.32577014 1 5 C1.99 4.67 2.98 4.34 4 4 C4 5.98 4 7.96 4 10 C0.51421163 10 -0.14008739 9.88286455 -2 7 C-1.40677966 0 -1.40677966 0 0 0 Z " fill="#A8A7A7" transform="translate(284,325)"/>
<path d="M0 0 C4.57125235 1.52375078 3.45565252 3.59535894 3 8 C2.01 8.99 1.02 9.98 0 11 C0 7.37 0 3.74 0 0 Z " fill="#4F4D4C" transform="translate(280,324)"/>
<path d="M0 0 C1 2 1 2 0 5 C-2.60396452 5.22577727 -4.96714526 5.27976876 -7.5625 5.1875 C-8.27341797 5.17396484 -8.98433594 5.16042969 -9.71679688 5.14648438 C-15 5.04011116 -15 5.04011116 -15 4 C-14.33613281 3.96261719 -13.67226563 3.92523438 -12.98828125 3.88671875 C-7.92963621 3.5100897 -4.15819181 3.18794705 0 0 Z " fill="#888886" transform="translate(275,307)"/>
<path d="M0 0 C0 2 0 4 0 6 C-0.66 5.67 -1.32 5.34 -2 5 C-4.3329866 4.95977609 -6.66706666 4.95679753 -9 5 C-9 4.34 -9 3.68 -9 3 C-7.35 3 -5.7 3 -4 3 C-4.66 2.34 -5.32 1.68 -6 1 C-4.3240941 -0.6759059 -2.25451398 -0.05780805 0 0 Z " fill="#BABBBA" transform="translate(244,231)"/>
<path d="M0 0 C-0.75 5 -0.75 5 -3 5 C-3.66 4.01 -4.32 3.02 -5 2 C-5.33 2.66 -5.66 3.32 -6 4 C-12.92339383 0.53830308 -4.02197637 -1.34065879 0 0 Z " fill="#9C9998" transform="translate(275,218)"/>
<path d="M0 0 C0.82371094 -0.03480469 1.64742188 -0.06960937 2.49609375 -0.10546875 C4.5625 0.1875 4.5625 0.1875 5.5625 3.1875 C3.5825 4.1775 3.5825 4.1775 1.5625 5.1875 C1.2325 4.5275 0.9025 3.8675 0.5625 3.1875 C-1.09566784 2.49996699 -2.76209336 1.83188717 -4.4375 1.1875 C-4.4375 -0.74528755 -1.5143727 0.04961283 0 0 Z " fill="#918F8E" transform="translate(260.4375,215.8125)"/>
<path d="M0 0 C1.45922693 0.11409593 2.91740598 0.24165544 4.375 0.375 C5.59316406 0.47941406 5.59316406 0.47941406 6.8359375 0.5859375 C9 1 9 1 11 3 C7.00178225 4.5992871 3.91738964 3.43135391 0 2 C0 1.34 0 0.68 0 0 Z " fill="#3B3A39" transform="translate(259,191)"/>
<path d="M0 0 C1.36511719 0.02707031 1.36511719 0.02707031 2.7578125 0.0546875 C3.45648438 0.07789063 4.15515625 0.10109375 4.875 0.125 C0.58589349 4.54407944 -1.50571826 4.3286399 -7.125 2.125 C-4.55755839 -0.44244161 -3.54189129 -0.09081773 0 0 Z " fill="#646363" transform="translate(283.125,301.875)"/>
<path d="M0 0 C-0.99 0.495 -0.99 0.495 -2 1 C-2 1.66 -2 2.32 -2 3 C-5 4.125 -5 4.125 -8 5 C-8 -0.12220866 -4.59206552 -1.80402574 0 0 Z " fill="#B9B9B8" transform="translate(233,233)"/>
<path d="M0 0 C0.66 0.66 1.32 1.32 2 2 C3.31747324 2.69748583 4.64914193 3.36959957 6 4 C4 6 4 6 2.1875 5 C-0.83230336 3.61951847 -2.13331558 4.56665779 -5 6 C-3.35 4.02 -1.7 2.04 0 0 Z " fill="#868685" transform="translate(251,224)"/>
<path d="M0 0 C0.33 0 0.66 0 1 0 C1 4.95 1 9.9 1 15 C1.66 15 2.32 15 3 15 C3 15.99 3 16.98 3 18 C2.01 18 1.02 18 0 18 C0 12.06 0 6.12 0 0 Z " fill="#A1A09F" transform="translate(255,191)"/>
<path d="M0 0 C0.2749432 2.79127121 0.52082202 5.57992735 0.75 8.375 C0.83121094 9.1690625 0.91242188 9.963125 0.99609375 10.78125 C1.54369703 17.9609375 1.54369703 17.9609375 -3 19 C-2.505 17.515 -2.505 17.515 -2 16 C-1.77202438 13.26710707 -1.58331813 10.54957796 -1.4375 7.8125 C-1.39431641 7.06291016 -1.35113281 6.31332031 -1.30664062 5.54101562 C-0.98900279 0 -0.98900279 0 0 0 Z " fill="#908F8F" transform="translate(164,105)"/>
<path d="M0 0 C3.38352144 0.13534086 5.125 0.41389311 5.125 4.125 C2.88139663 3.84454958 -9.1416971 0.39746509 0 0 Z " fill="#2F2E2E" transform="translate(260.875,205.875)"/>
<path d="M0 0 C0 3.99391233 -0.48820572 3.27698353 -4 4 C-4.66 4.66 -5.32 5.32 -6 6 C-6 5.34 -6 4.68 -6 4 C-7.96672915 2.8499169 -7.96672915 2.8499169 -10 2 C-8.865625 1.855625 -7.73125 1.71125 -6.5625 1.5625 C-3.63592087 1.10040856 -2.61005413 0 0 0 Z " fill="#999898" transform="translate(249,216)"/>
<path d="M0 0 C1.32 0.66 2.64 1.32 4 2 C-0.625 7.125 -0.625 7.125 -4 6 C-3.34 5.34 -2.68 4.68 -2 4 C-1.30251417 2.68252676 -0.63040043 1.35085807 0 0 Z " fill="#9B9B99" transform="translate(220,226)"/>
<path d="M0 0 C0 0.99 0 1.98 0 3 C-3 2 -3 2 -3 -1 C-3.61875 -0.79375 -4.2375 -0.5875 -4.875 -0.375 C-7 0 -7 0 -9 -2 C-4.93784365 -3.35405212 -3.03728086 -3.03728086 0 0 Z " fill="#939191" transform="translate(264,228)"/>
<path d="M0 0 C-2.76264289 0.59732819 -5.16032769 1 -8 1 C-8 -5.3661845 -2.50714022 -3.34285362 0 0 Z " fill="#515050" transform="translate(239,216)"/>
<path d="M0 0 C-7.8 5.2 -7.8 5.2 -11 2 C-3.57142857 -1.57142857 -3.57142857 -1.57142857 0 0 Z " fill="#444342" transform="translate(238,193)"/>
<path d="M0 0 C4.875 1.625 4.875 1.625 6 5 C1.2 5.61538462 1.2 5.61538462 0.1875 2.5 C0.125625 1.675 0.06375 0.85 0 0 Z " fill="#EDEDED" transform="translate(258,382)"/>
<path d="M0 0 C4.61100788 1.53700263 3.13078237 3.58937789 2.6875 8.0625 C2.56761719 9.35285156 2.44773437 10.64320313 2.32421875 11.97265625 C2 15 2 15 1 15 C0.67 10.05 0.34 5.1 0 0 Z " fill="#666463" transform="translate(303,235)"/>
<path d="M0 0 C2.46800047 1.15173355 4.04783565 2.04783565 6 4 C3.50935112 4.68707555 1.62113708 5 -1 5 C-0.67 3.35 -0.34 1.7 0 0 Z " fill="#939493" transform="translate(235,230)"/>
<path d="M0 0 C0 3 0 3 -1 6 C-5 5.375 -5 5.375 -5 2 C-2.5 0.8125 -2.5 0.8125 0 0 Z " fill="#A7A7A6" transform="translate(235,219)"/>
<path d="M0 0 C1.65 0 3.3 0 5 0 C5 0.66 5 1.32 5 2 C5.99 2 6.98 2 8 2 C8 2.66 8 3.32 8 4 C1.125 3.375 1.125 3.375 0 0 Z " fill="#949292" transform="translate(252,219)"/>
<path d="M0 0 C4.38060618 1.87740265 8.69939935 3.90180195 7 9 C5.83037314 7.69013727 4.66437056 6.3770374 3.5 5.0625 C2.8503125 4.33160156 2.200625 3.60070312 1.53125 2.84765625 C0 1 0 1 0 0 Z " fill="#1A1919" transform="translate(287,205)"/>
<path d="M0 0 C3.00348657 0 2.60164121 1.29116022 3 4 C1.54805213 6.90389574 0.78886392 5.89963352 -2 5 C-1.34 5 -0.68 5 0 5 C0.2981424 2.7763932 0.2981424 2.7763932 -2 2 C-1.34 2 -0.68 2 0 2 C0 1.34 0 0.68 0 0 Z " fill="#9A9795" transform="translate(278,220)"/>
<path d="M0 0 C2.31 0 4.62 0 7 0 C5.67451851 3.97644446 4.89837258 3.58475589 1 3 C0.67 2.01 0.34 1.02 0 0 Z " fill="#0D0C0C" transform="translate(237,212)"/>
<path d="M0 0 C0 0.99 0 1.98 0 3 C-0.99 2.67 -1.98 2.34 -3 2 C-3.33 2.66 -3.66 3.32 -4 4 C-4 3.34 -4 2.68 -4 2 C-5.98045559 1.33820153 -5.98045559 1.33820153 -8 1 C-5.29120665 -0.35439668 -2.99066732 -0.06501451 0 0 Z " fill="#1D1B1A" transform="translate(245,191)"/>
<path d="M0 0 C3.08393446 1.54196723 2.5879431 3.77222095 3 7 C-1 6 -1 6 0 0 Z " fill="#646362" transform="translate(281,318)"/>
<path d="M0 0 C6.875 -0.375 6.875 -0.375 8 3 C6.35 3 4.7 3 3 3 C3 2.34 3 1.68 3 1 C2.01 0.67 1.02 0.34 0 0 Z " fill="#ABA7A7" transform="translate(277,228)"/>
<path d="M0 0 C5 1.75 5 1.75 5 4 C2.5 4.625 2.5 4.625 0 5 C0 3.35 0 1.7 0 0 Z " fill="#EBEAEA" transform="translate(253,222)"/>
<path d="M0 0 C0.66 0 1.32 0 2 0 C1.375 4.875 1.375 4.875 -2 6 C-2.66 5.34 -3.32 4.68 -4 4 C-3.34 4 -2.68 4 -2 4 C-2 3.34 -2 2.68 -2 2 C-1.34 2 -0.68 2 0 2 C0 1.34 0 0.68 0 0 Z " fill="#9F9E9E" transform="translate(249,219)"/>
</svg>